<svg xmlns="http://www.w3.org/2000/svg" width="15" height="15" viewBox="0 0 15 15">
  <path id="Union_2" data-name="Union 2" d="M-1546.359,1021a1.642,1.642,0,0,1-1.641-1.64v-9.625a1.643,1.643,0,0,1,1.641-1.641h.656V1007h1.094v1.094h7.219V1007h1.094v1.094h.656a1.643,1.643,0,0,1,1.641,1.641v9.625a1.642,1.642,0,0,1-1.641,1.64Zm-.547-1.64a.547.547,0,0,0,.547.546h10.719a.547.547,0,0,0,.546-.546v-7.219h-11.812Zm7.547-.6v-1.094h1.094v1.094Zm-2.188,0v-1.094h1.094v1.094Zm-2.187,0v-1.094h1.094v1.094Zm-2.188,0v-1.094h1.094v1.094Zm8.75-2.188v-1.094h1.094v1.094Zm-2.187,0v-1.094h1.094v1.094Zm-2.188,0v-1.094h1.094v1.094Zm-2.187,0v-1.094h1.094v1.094Zm-2.188,0v-1.094h1.094v1.094Zm8.75-2.187v-1.094h1.094v1.094Zm-2.187,0v-1.094h1.094v1.094Zm-2.188,0v-1.094h1.094v1.094Zm-2.187,0v-1.094h1.094v1.094Zm-2.188,0v-1.094h1.094v1.094Z" transform="translate(1548.5 -1006.5)" fill="#ffa83b" stroke="rgba(0,0,0,0)" stroke-miterlimit="10" stroke-width="1"/>
</svg>
